# xmcd CD database file
#
# Track frame offsets:
#	150
#	15375
#	31635
#	49806
#	63724
#	72720
#	95398
#	114442
#	136870
#	160398
#	179860
#
# Disc length: 2674 seconds
#
# Revision: 2
# Processed by: cddbd v1.5.1PL0 Copyright (c) Steve Scherf et al.
# Submitted via: CDex 1.50
#
DISCID=980a700b
DTITLE=The Police - Synchronicity
DYEAR=1983
DGENRE=Rock
TTITLE0=Synchronicity I
TTITLE1=Walking In Your Footsteps
TTITLE2=O My God
TTITLE3=Mother
TTITLE4=Miss Gradenko
TTITLE5=Synchronicity II
TTITLE6=Every Breath You Take
TTITLE7=King Of Pain
TTITLE8=Wrapped Around Your Finger
TTITLE9=Tea In The Sahara
TTITLE10=Murder By Numbers
EXTD=YEAR: 1983
EXTT0=
EXTT1=
EXTT2=
EXTT3=
EXTT4=
EXTT5=
EXTT6=
EXTT7=
EXTT8=
EXTT9=
EXTT10=
PLAYORDER=
